<svg width="48" height="48" viewBox="0 0 48 48" fill="none" xmlns="http://www.w3.org/2000/svg">
<g filter="url(#filter0_dddd_2_8864)">
<rect x="1.32001" y="1.32001" width="41.36" height="41.36" rx="8.59375" fill="url(#paint0_linear_2_8864)"/>
</g>
<mask id="mask0_2_8864" style="mask-type:alpha" maskUnits="userSpaceOnUse" x="1" y="1" width="42" height="42">
<rect x="1.32001" y="1.32001" width="41.36" height="41.36" rx="8.59375" fill="url(#paint1_linear_2_8864)"/>
</mask>
<g mask="url(#mask0_2_8864)">
<g style="mix-blend-mode:overlay" opacity="0.42">
<path d="M-1.76001 21.12H46.2" stroke="#7A7A7A" stroke-width="1.03125"/>
<path d="M-1.76001 22.44H46.2" stroke="white" stroke-width="1.03125"/>
<path d="M-1.50824 25.3074L45.7185 16.9528" stroke="#7A7A7A" stroke-width="1.03125"/>
<path d="M-1.27826 26.6072L45.9484 18.2526" stroke="white" stroke-width="1.03125"/>
<path d="M-0.562927 29.2914L44.555 13.0268" stroke="#7A7A7A" stroke-width="1.03125"/>
<path d="M-0.115234 30.5332L45.0027 14.2686" stroke="white" stroke-width="1.03125"/>
<path d="M0.876526 32.7323L42.9278 9.67043" stroke="#7A7A7A" stroke-width="1.03125"/>
<path d="M1.51129 33.8896L43.5626 10.8278" stroke="white" stroke-width="1.03125"/>
<path d="M-1.50824 18.2527L45.7185 26.6073" stroke="#7A7A7A" stroke-width="1.03125"/>
<path d="M-1.27826 16.9529L45.9484 25.3075" stroke="white" stroke-width="1.03125"/>
<path d="M-0.562927 14.2686L44.555 30.5333" stroke="#7A7A7A" stroke-width="1.03125"/>
<path d="M-0.115234 13.0269L45.0027 29.2915" stroke="white" stroke-width="1.03125"/>
<path d="M0.876526 10.8278L42.9278 33.8897" stroke="#7A7A7A" stroke-width="1.03125"/>
<path d="M1.51129 9.67044L43.5626 32.7323" stroke="white" stroke-width="1.03125"/>
</g>
<g style="mix-blend-mode:overlay" opacity="0.42">
<path d="M21.5601 45.76L21.5601 -2.19996" stroke="#7A7A7A" stroke-width="1.03125"/>
<path d="M22.8801 45.76L22.8801 -2.19996" stroke="white" stroke-width="1.03125"/>
<path d="M25.7475 45.5082L17.3928 -1.71846" stroke="#7A7A7A" stroke-width="1.03125"/>
<path d="M27.0474 45.2783L18.6927 -1.94841" stroke="white" stroke-width="1.03125"/>
<path d="M29.7315 44.5629L13.4669 -0.554965" stroke="#7A7A7A" stroke-width="1.03125"/>
<path d="M30.9733 44.1153L14.7087 -1.00263" stroke="white" stroke-width="1.03125"/>
<path d="M33.1724 43.1235L10.1106 1.07215" stroke="#7A7A7A" stroke-width="1.03125"/>
<path d="M34.3298 42.4887L11.2679 0.43742" stroke="white" stroke-width="1.03125"/>
<path d="M18.6927 45.5082L27.0474 -1.71846" stroke="#7A7A7A" stroke-width="1.03125"/>
<path d="M17.3929 45.2783L25.7476 -1.94841" stroke="white" stroke-width="1.03125"/>
<path d="M14.7087 44.5629L30.9733 -0.554965" stroke="#7A7A7A" stroke-width="1.03125"/>
<path d="M13.467 44.1153L29.7316 -1.00263" stroke="white" stroke-width="1.03125"/>
<path d="M11.2679 43.1235L34.3297 1.07216" stroke="#7A7A7A" stroke-width="1.03125"/>
<path d="M10.1105 42.4887L33.1724 0.437423" stroke="white" stroke-width="1.03125"/>
</g>
<path d="M24.0783 1.68017C24.2322 1.44924 24.2322 1.14839 24.0783 0.917458L22.572 -1.34193C22.2999 -1.75012 21.7001 -1.75012 21.428 -1.34193L19.9217 0.917458C19.7677 1.14839 19.7677 1.44924 19.9217 1.68017L21.428 3.93956C21.7001 4.34775 22.2999 4.34775 22.572 3.93956L24.0783 1.68017Z" fill="#312E35"/>
<path d="M24.0783 1.68017C24.2322 1.44924 24.2322 1.14839 24.0783 0.917458L22.572 -1.34193C22.2999 -1.75012 21.7001 -1.75012 21.428 -1.34193L19.9217 0.917458C19.7677 1.14839 19.7677 1.44924 19.9217 1.68017L21.428 3.93956C21.7001 4.34775 22.2999 4.34775 22.572 3.93956L24.0783 1.68017Z" fill="#281E31"/>
<path d="M24.0783 43.0826C24.2322 42.8517 24.2322 42.5508 24.0783 42.3199L22.572 40.0605C22.2999 39.6523 21.7001 39.6523 21.428 40.0605L19.9217 42.3199C19.7677 42.5508 19.7677 42.8517 19.9217 43.0826L21.428 45.342C21.7001 45.7502 22.2999 45.7502 22.572 45.342L24.0783 43.0826Z" fill="#312E35"/>
<path d="M24.0783 43.0826C24.2322 42.8517 24.2322 42.5508 24.0783 42.3199L22.572 40.0605C22.2999 39.6523 21.7001 39.6523 21.428 40.0605L19.9217 42.3199C19.7677 42.5508 19.7677 42.8517 19.9217 43.0826L21.428 45.342C21.7001 45.7502 22.2999 45.7502 22.572 45.342L24.0783 43.0826Z" fill="#281E31"/>
<path d="M42.3198 24.0783C42.5508 24.2323 42.8516 24.2323 43.0826 24.0783L45.3419 22.5721C45.7501 22.2999 45.7501 21.7001 45.3419 21.428L43.0826 19.9217C42.8516 19.7678 42.5508 19.7678 42.3198 19.9217L40.0605 21.428C39.6523 21.7001 39.6523 22.2999 40.0605 22.5721L42.3198 24.0783Z" fill="#312E35"/>
<path d="M42.3198 24.0783C42.5508 24.2323 42.8516 24.2323 43.0826 24.0783L45.3419 22.5721C45.7501 22.2999 45.7501 21.7001 45.3419 21.428L43.0826 19.9217C42.8516 19.7678 42.5508 19.7678 42.3198 19.9217L40.0605 21.428C39.6523 21.7001 39.6523 22.2999 40.0605 22.5721L42.3198 24.0783Z" fill="#281E31"/>
<path d="M0.917426 24.0783C1.14836 24.2323 1.44921 24.2323 1.68014 24.0783L3.93953 22.5721C4.34772 22.2999 4.34772 21.7001 3.93953 21.428L1.68014 19.9217C1.44921 19.7678 1.14836 19.7678 0.917427 19.9217L-1.34196 21.428C-1.75015 21.7001 -1.75015 22.2999 -1.34196 22.5721L0.917426 24.0783Z" fill="#312E35"/>
<path d="M0.917426 24.0783C1.14836 24.2323 1.44921 24.2323 1.68014 24.0783L3.93953 22.5721C4.34772 22.2999 4.34772 21.7001 3.93953 21.428L1.68014 19.9217C1.44921 19.7678 1.14836 19.7678 0.917427 19.9217L-1.34196 21.428C-1.75015 21.7001 -1.75015 22.2999 -1.34196 22.5721L0.917426 24.0783Z" fill="#281E31"/>
</g>
<rect x="7.06061" y="7.06064" width="29.8787" height="29.8787" rx="6.01562" fill="#D9D9D9"/>
<rect x="7.06061" y="7.06064" width="29.8787" height="29.8787" rx="6.01562" fill="#E7E6DE"/>
<rect x="7.06061" y="7.06064" width="29.8787" height="29.8787" rx="6.01562" stroke="#B51010" stroke-width="1.71875"/>
<mask id="mask1_2_8864" style="mask-type:alpha" maskUnits="userSpaceOnUse" x="1" y="1" width="42" height="42">
<rect x="1.32001" y="1.32001" width="41.36" height="41.36" rx="8.59375" fill="url(#paint2_linear_2_8864)"/>
</mask>
<g mask="url(#mask1_2_8864)">
<rect x="40.4146" y="-3.95999" width="10.6563" height="62.755" transform="rotate(45 40.4146 -3.95999)" fill="#B51010"/>
<path d="M41.4503 2.29633L2.58637 41.1603" stroke="#0F4C32" stroke-width="5.5"/>
<path d="M41.4503 2.29633L2.58637 41.1603" stroke="#DDD3B1" stroke-width="1.375"/>
<rect width="10.6563" height="62.755" transform="matrix(-0.707107 0.707107 0.707107 0.707107 3.57513 -3.95999)" fill="#B51010"/>
<path d="M2.53943 2.29633L41.4034 41.1603" stroke="#0F4C32" stroke-width="5.5"/>
<path d="M2.53943 2.29633L41.4034 41.1603" stroke="#DDD3B1" stroke-width="1.375"/>
</g>
<rect x="8.77936" y="8.77939" width="26.4412" height="26.4412" rx="4.29688" fill="#D9D9D9"/>
<rect x="8.77936" y="8.77939" width="26.4412" height="26.4412" rx="4.29688" fill="#E7E6DE"/>
<rect x="8.77936" y="8.77939" width="26.4412" height="26.4412" rx="4.29688" stroke="#0F4C32" stroke-width="1.71875"/>
<g filter="url(#filter1_i_2_8864)" style="mix-blend-mode:overlay">
<rect x="1.32001" y="1.32001" width="41.36" height="41.36" rx="8.59375" fill="url(#paint3_linear_2_8864)" fill-opacity="0.25"/>
</g>
<mask id="path-42-inside-1_2_8864" fill="white">
<path d="M1.32001 18.5075C1.32001 10.4052 1.32001 6.35411 3.83706 3.83706C6.35411 1.32001 10.4052 1.32001 18.5075 1.32001H25.4925C33.5948 1.32001 37.6459 1.32001 40.163 3.83706C42.68 6.35411 42.68 10.4052 42.68 18.5075V25.4925C42.68 33.5948 42.68 37.6459 40.163 40.163C37.6459 42.68 33.5948 42.68 25.4925 42.68H18.5075C10.4052 42.68 6.35411 42.68 3.83706 40.163C1.32001 37.6459 1.32001 33.5948 1.32001 25.4925V18.5075Z"/>
</mask>
<g clip-path="url(#paint4_angular_2_8864_clip_path)" data-figma-skip-parse="true" mask="url(#path-42-inside-1_2_8864)"><g transform="matrix(0 0.02068 -0.02068 0 22 22)"><foreignObject x="-1016.62" y="-1016.62" width="2033.24" height="2033.24"><div xmlns="http://www.w3.org/1999/xhtml" style="background:conic-gradient(from 90deg,rgba(255, 255, 255, 0) 0deg,rgba(255, 255, 255, 0) 81.8156deg,rgba(255, 255, 255, 1) 131.4deg,rgba(255, 255, 255, 0) 193.62deg,rgba(255, 255, 255, 0) 282.297deg,rgba(255, 255, 255, 0.47) 313.983deg,rgba(255, 255, 255, 0) 347.207deg,rgba(255, 255, 255, 0) 360deg);height:100%;width:100%;opacity:1"></div></foreignObject></g></g><path d="M3.83706 40.163L4.08013 39.9199L3.83706 40.163ZM40.163 40.163L39.9199 39.9199L40.163 40.163ZM40.163 3.83706L39.9199 4.08013L40.163 3.83706ZM18.5075 1.32001V1.66376H25.4925V1.32001V0.976257H18.5075V1.32001ZM42.68 18.5075H42.3363V25.4925H42.68H43.0238V18.5075H42.68ZM25.4925 42.68V42.3363H18.5075V42.68V43.0238H25.4925V42.68ZM1.32001 25.4925H1.66376V18.5075H1.32001H0.976257V25.4925H1.32001ZM18.5075 42.68V42.3363C14.4467 42.3363 11.4356 42.3355 9.12363 42.0247C6.82155 41.7152 5.26414 41.1039 4.08013 39.9199L3.83706 40.163L3.59399 40.406C4.92703 41.7391 6.65371 42.3863 9.03202 42.7061C11.4005 43.0245 14.4661 43.0238 18.5075 43.0238V42.68ZM1.32001 25.4925H0.976257C0.976257 29.5339 0.975527 32.5996 1.29395 34.968C1.61371 37.3463 2.26095 39.073 3.59399 40.406L3.83706 40.163L4.08013 39.9199C2.89612 38.7359 2.28483 37.1785 1.97532 34.8764C1.66449 32.5644 1.66376 29.5534 1.66376 25.4925H1.32001ZM42.68 25.4925H42.3363C42.3363 29.5534 42.3355 32.5644 42.0247 34.8764C41.7152 37.1785 41.1039 38.7359 39.9199 39.9199L40.163 40.163L40.406 40.406C41.7391 39.073 42.3863 37.3463 42.7061 34.968C43.0245 32.5996 43.0238 29.5339 43.0238 25.4925H42.68ZM25.4925 42.68V43.0238C29.5339 43.0238 32.5996 43.0245 34.968 42.7061C37.3463 42.3863 39.073 41.7391 40.406 40.406L40.163 40.163L39.9199 39.9199C38.7359 41.1039 37.1785 41.7152 34.8764 42.0247C32.5644 42.3355 29.5534 42.3363 25.4925 42.3363V42.68ZM25.4925 1.32001V1.66376C29.5534 1.66376 32.5644 1.66449 34.8764 1.97532C37.1785 2.28483 38.7359 2.89612 39.9199 4.08013L40.163 3.83706L40.406 3.59399C39.073 2.26095 37.3463 1.61371 34.968 1.29395C32.5996 0.975527 29.5339 0.976257 25.4925 0.976257V1.32001ZM42.68 18.5075H43.0238C43.0238 14.4661 43.0245 11.4005 42.7061 9.03202C42.3863 6.65371 41.7391 4.92703 40.406 3.59399L40.163 3.83706L39.9199 4.08013C41.1039 5.26414 41.7152 6.82155 42.0247 9.12363C42.3355 11.4356 42.3363 14.4467 42.3363 18.5075H42.68ZM18.5075 1.32001V0.976257C14.4661 0.976257 11.4005 0.975527 9.03202 1.29395C6.65371 1.61371 4.92703 2.26095 3.59399 3.59399L3.83706 3.83706L4.08013 4.08013C5.26414 2.89612 6.82155 2.28483 9.12363 1.97532C11.4356 1.66449 14.4467 1.66376 18.5075 1.66376V1.32001ZM1.32001 18.5075H1.66376C1.66376 14.4467 1.66449 11.4356 1.97532 9.12363C2.28483 6.82155 2.89612 5.26414 4.08013 4.08013L3.83706 3.83706L3.59399 3.59399C2.26095 4.92703 1.61371 6.65371 1.29395 9.03202C0.975527 11.4005 0.976257 14.4661 0.976257 18.5075H1.32001Z" data-figma-gradient-fill="{&#34;type&#34;:&#34;GRADIENT_ANGULAR&#34;,&#34;stops&#34;:[{&#34;color&#34;:{&#34;r&#34;:1.0,&#34;g&#34;:1.0,&#34;b&#34;:1.0,&#34;a&#34;:0.0},&#34;position&#34;:0.22726543247699738},{&#34;color&#34;:{&#34;r&#34;:1.0,&#34;g&#34;:1.0,&#34;b&#34;:1.0,&#34;a&#34;:1.0},&#34;position&#34;:0.36500000953674316},{&#34;color&#34;:{&#34;r&#34;:1.0,&#34;g&#34;:1.0,&#34;b&#34;:1.0,&#34;a&#34;:0.0},&#34;position&#34;:0.53783380985260010},{&#34;color&#34;:{&#34;r&#34;:1.0,&#34;g&#34;:1.0,&#34;b&#34;:1.0,&#34;a&#34;:0.0},&#34;position&#34;:0.78415882587432861},{&#34;color&#34;:{&#34;r&#34;:1.0,&#34;g&#34;:1.0,&#34;b&#34;:1.0,&#34;a&#34;:0.46999999880790710},&#34;position&#34;:0.87217563390731812},{&#34;color&#34;:{&#34;r&#34;:1.0,&#34;g&#34;:1.0,&#34;b&#34;:1.0,&#34;a&#34;:0.0},&#34;position&#34;:0.96446347236633301}],&#34;stopsVar&#34;:[{&#34;color&#34;:{&#34;r&#34;:1.0,&#34;g&#34;:1.0,&#34;b&#34;:1.0,&#34;a&#34;:0.0},&#34;position&#34;:0.22726543247699738},{&#34;color&#34;:{&#34;r&#34;:1.0,&#34;g&#34;:1.0,&#34;b&#34;:1.0,&#34;a&#34;:1.0},&#34;position&#34;:0.36500000953674316},{&#34;color&#34;:{&#34;r&#34;:1.0,&#34;g&#34;:1.0,&#34;b&#34;:1.0,&#34;a&#34;:0.0},&#34;position&#34;:0.53783380985260010},{&#34;color&#34;:{&#34;r&#34;:1.0,&#34;g&#34;:1.0,&#34;b&#34;:1.0,&#34;a&#34;:0.0},&#34;position&#34;:0.78415882587432861},{&#34;color&#34;:{&#34;r&#34;:1.0,&#34;g&#34;:1.0,&#34;b&#34;:1.0,&#34;a&#34;:0.46999999880790710},&#34;position&#34;:0.87217563390731812},{&#34;color&#34;:{&#34;r&#34;:1.0,&#34;g&#34;:1.0,&#34;b&#34;:1.0,&#34;a&#34;:0.0},&#34;position&#34;:0.96446347236633301}],&#34;transform&#34;:{&#34;m00&#34;:2.5325696435005238e-15,&#34;m01&#34;:-41.360000610351562,&#34;m02&#34;:42.680007934570312,&#34;m10&#34;:41.360000610351562,&#34;m11&#34;:2.5325696435005238e-15,&#34;m12&#34;:1.320007324218750},&#34;opacity&#34;:1.0,&#34;blendMode&#34;:&#34;NORMAL&#34;,&#34;visible&#34;:true}" mask="url(#path-42-inside-1_2_8864)"/>
<path d="M16.5953 20.46H17.9953C19.8953 20.46 21.2353 21.82 21.2353 23.86V25.84C21.2353 28 19.3753 29.2 17.4953 29.2C15.0753 29.2 13.8953 28 13.6353 25.84L15.9353 25.24C15.9953 26.4 16.4553 27.02 17.4553 27.02C18.1753 27.02 18.7353 26.56 18.7353 25.82V23.78C18.7353 22.96 18.1553 22.54 17.3953 22.54H14.0353L14.7153 15.4H20.5553V17.62H16.8553L16.5953 20.46ZM28.1098 15.4H30.9098L27.4698 21.76L31.3098 29H28.4498L25.7898 23.54L25.0298 24.62V29H22.5498V15.4H25.0298V21.56L28.1098 15.4Z" fill="url(#paint5_linear_2_8864)"/>
<defs>
<filter id="filter0_dddd_2_8864" x="0.330007" y="0.330007" width="47.3" height="47.3" filterUnits="userSpaceOnUse" color-interpolation-filters="sRGB">
<feFlood flood-opacity="0" result="BackgroundImageFix"/>
<feColorMatrix in="SourceAlpha" type="matrix" values="0 0 0 0 0 0 0 0 0 0 0 0 0 0 0 0 0 0 127 0" result="hardAlpha"/>
<feOffset/>
<feGaussianBlur stdDeviation="0.495"/>
<feColorMatrix type="matrix" values="0 0 0 0 0 0 0 0 0 0 0 0 0 0 0 0 0 0 0.25 0"/>
<feBlend mode="normal" in2="BackgroundImageFix" result="effect1_dropShadow_2_8864"/>
<feColorMatrix in="SourceAlpha" type="matrix" values="0 0 0 0 0 0 0 0 0 0 0 0 0 0 0 0 0 0 127 0" result="hardAlpha"/>
<feOffset dx="0.99" dy="0.99"/>
<feGaussianBlur stdDeviation="0.495"/>
<feColorMatrix type="matrix" values="0 0 0 0 0 0 0 0 0 0 0 0 0 0 0 0 0 0 0.22 0"/>
<feBlend mode="normal" in2="effect1_dropShadow_2_8864" result="effect2_dropShadow_2_8864"/>
<feColorMatrix in="SourceAlpha" type="matrix" values="0 0 0 0 0 0 0 0 0 0 0 0 0 0 0 0 0 0 127 0" result="hardAlpha"/>
<feOffset dx="1.98" dy="1.98"/>
<feGaussianBlur stdDeviation="0.495"/>
<feColorMatrix type="matrix" values="0 0 0 0 0 0 0 0 0 0 0 0 0 0 0 0 0 0 0.13 0"/>
<feBlend mode="normal" in2="effect2_dropShadow_2_8864" result="effect3_dropShadow_2_8864"/>
<feColorMatrix in="SourceAlpha" type="matrix" values="0 0 0 0 0 0 0 0 0 0 0 0 0 0 0 0 0 0 127 0" result="hardAlpha"/>
<feOffset dx="2.97" dy="2.97"/>
<feGaussianBlur stdDeviation="0.99"/>
<feColorMatrix type="matrix" values="0 0 0 0 0 0 0 0 0 0 0 0 0 0 0 0 0 0 0.04 0"/>
<feBlend mode="normal" in2="effect3_dropShadow_2_8864" result="effect4_dropShadow_2_8864"/>
<feBlend mode="normal" in="SourceGraphic" in2="effect4_dropShadow_2_8864" result="shape"/>
</filter>
<filter id="filter1_i_2_8864" x="1.32001" y="1.32001" width="41.36" height="41.36" filterUnits="userSpaceOnUse" color-interpolation-filters="sRGB">
<feFlood flood-opacity="0" result="BackgroundImageFix"/>
<feBlend mode="normal" in="SourceGraphic" in2="BackgroundImageFix" result="shape"/>
<feColorMatrix in="SourceAlpha" type="matrix" values="0 0 0 0 0 0 0 0 0 0 0 0 0 0 0 0 0 0 127 0" result="hardAlpha"/>
<feMorphology radius="0.34375" operator="erode" in="SourceAlpha" result="effect1_innerShadow_2_8864"/>
<feOffset/>
<feGaussianBlur stdDeviation="0.34375"/>
<feComposite in2="hardAlpha" operator="arithmetic" k2="-1" k3="1"/>
<feColorMatrix type="matrix" values="0 0 0 0 1 0 0 0 0 1 0 0 0 0 1 0 0 0 0.25 0"/>
<feBlend mode="normal" in2="shape" result="effect1_innerShadow_2_8864"/>
</filter>
<clipPath id="paint4_angular_2_8864_clip_path"><path d="M3.83706 40.163L4.08013 39.9199L3.83706 40.163ZM40.163 40.163L39.9199 39.9199L40.163 40.163ZM40.163 3.83706L39.9199 4.08013L40.163 3.83706ZM18.5075 1.32001V1.66376H25.4925V1.32001V0.976257H18.5075V1.32001ZM42.68 18.5075H42.3363V25.4925H42.68H43.0238V18.5075H42.68ZM25.4925 42.68V42.3363H18.5075V42.68V43.0238H25.4925V42.68ZM1.32001 25.4925H1.66376V18.5075H1.32001H0.976257V25.4925H1.32001ZM18.5075 42.68V42.3363C14.4467 42.3363 11.4356 42.3355 9.12363 42.0247C6.82155 41.7152 5.26414 41.1039 4.08013 39.9199L3.83706 40.163L3.59399 40.406C4.92703 41.7391 6.65371 42.3863 9.03202 42.7061C11.4005 43.0245 14.4661 43.0238 18.5075 43.0238V42.68ZM1.32001 25.4925H0.976257C0.976257 29.5339 0.975527 32.5996 1.29395 34.968C1.61371 37.3463 2.26095 39.073 3.59399 40.406L3.83706 40.163L4.08013 39.9199C2.89612 38.7359 2.28483 37.1785 1.97532 34.8764C1.66449 32.5644 1.66376 29.5534 1.66376 25.4925H1.32001ZM42.68 25.4925H42.3363C42.3363 29.5534 42.3355 32.5644 42.0247 34.8764C41.7152 37.1785 41.1039 38.7359 39.9199 39.9199L40.163 40.163L40.406 40.406C41.7391 39.073 42.3863 37.3463 42.7061 34.968C43.0245 32.5996 43.0238 29.5339 43.0238 25.4925H42.68ZM25.4925 42.68V43.0238C29.5339 43.0238 32.5996 43.0245 34.968 42.7061C37.3463 42.3863 39.073 41.7391 40.406 40.406L40.163 40.163L39.9199 39.9199C38.7359 41.1039 37.1785 41.7152 34.8764 42.0247C32.5644 42.3355 29.5534 42.3363 25.4925 42.3363V42.68ZM25.4925 1.32001V1.66376C29.5534 1.66376 32.5644 1.66449 34.8764 1.97532C37.1785 2.28483 38.7359 2.89612 39.9199 4.08013L40.163 3.83706L40.406 3.59399C39.073 2.26095 37.3463 1.61371 34.968 1.29395C32.5996 0.975527 29.5339 0.976257 25.4925 0.976257V1.32001ZM42.68 18.5075H43.0238C43.0238 14.4661 43.0245 11.4005 42.7061 9.03202C42.3863 6.65371 41.7391 4.92703 40.406 3.59399L40.163 3.83706L39.9199 4.08013C41.1039 5.26414 41.7152 6.82155 42.0247 9.12363C42.3355 11.4356 42.3363 14.4467 42.3363 18.5075H42.68ZM18.5075 1.32001V0.976257C14.4661 0.976257 11.4005 0.975527 9.03202 1.29395C6.65371 1.61371 4.92703 2.26095 3.59399 3.59399L3.83706 3.83706L4.08013 4.08013C5.26414 2.89612 6.82155 2.28483 9.12363 1.97532C11.4356 1.66449 14.4467 1.66376 18.5075 1.66376V1.32001ZM1.32001 18.5075H1.66376C1.66376 14.4467 1.66449 11.4356 1.97532 9.12363C2.28483 6.82155 2.89612 5.26414 4.08013 4.08013L3.83706 3.83706L3.59399 3.59399C2.26095 4.92703 1.61371 6.65371 1.29395 9.03202C0.975527 11.4005 0.976257 14.4661 0.976257 18.5075H1.32001Z" mask="url(#path-42-inside-1_2_8864)"/></clipPath><linearGradient id="paint0_linear_2_8864" x1="22" y1="1.32001" x2="22" y2="42.68" gradientUnits="userSpaceOnUse">
<stop stop-color="#EFD695"/>
<stop offset="1" stop-color="#83714E"/>
</linearGradient>
<linearGradient id="paint1_linear_2_8864" x1="22" y1="1.32001" x2="22" y2="42.68" gradientUnits="userSpaceOnUse">
<stop stop-color="#EFD695"/>
<stop offset="1" stop-color="#83714E"/>
</linearGradient>
<linearGradient id="paint2_linear_2_8864" x1="22" y1="1.32001" x2="22" y2="42.68" gradientUnits="userSpaceOnUse">
<stop stop-color="#EFD695"/>
<stop offset="1" stop-color="#83714E"/>
</linearGradient>
<linearGradient id="paint3_linear_2_8864" x1="22" y1="1.32001" x2="22" y2="42.68" gradientUnits="userSpaceOnUse">
<stop stop-color="white"/>
<stop offset="1"/>
</linearGradient>
<linearGradient id="paint5_linear_2_8864" x1="22" y1="19" x2="22" y2="24" gradientUnits="userSpaceOnUse">
<stop stop-color="#3D3F40"/>
<stop offset="1" stop-color="#0D0D0D"/>
</linearGradient>
</defs>
</svg>
