<svg width="48" height="48" viewBox="0 0 48 48" fill="none" xmlns="http://www.w3.org/2000/svg">
<foreignObject x="-3.4375" y="-3.4375" width="51.0125" height="51.0125"><div xmlns="http://www.w3.org/1999/xhtml" style="backdrop-filter:blur(2.41px);clip-path:url(#bgblur_0_2_8861_clip_path);height:100%;width:100%"></div></foreignObject><g filter="url(#filter0_ddddi_2_8861)" data-figma-bg-blur-radius="4.8125">
<circle cx="22" cy="22" r="20.625" fill="#5331B2"/>
</g>
<mask id="mask0_2_8861" style="mask-type:alpha" maskUnits="userSpaceOnUse" x="1" y="1" width="42" height="42">
<circle cx="22" cy="22" r="18.7344" stroke="black" stroke-width="3.78125" stroke-linecap="round"/>
</mask>
<g mask="url(#mask0_2_8861)">
<rect x="16.1562" y="-4.46875" width="12.0312" height="52.5938" fill="#2FA063"/>
<rect x="48.4688" y="16.5" width="10.6563" height="52.5938" transform="rotate(90 48.4688 16.5)" fill="#2FA063"/>
<path d="M45.375 19.9375L-0.6875 19.9375" stroke="#FFBC39" stroke-width="1.71875"/>
<path d="M45.375 23.7188L-0.6875 23.7187" stroke="#FFBC39" stroke-width="1.71875"/>
<path d="M20.4531 -1.20312V44.8594" stroke="#FFBC39" stroke-width="1.71875"/>
<path d="M24.2344 -1.20312V44.8594" stroke="#FFBC39" stroke-width="1.71875"/>
</g>
<circle cx="22" cy="22" r="13.75" fill="#E7E6DE"/>
<circle cx="22" cy="22" r="13.9219" stroke="black" stroke-opacity="0.36" stroke-width="0.34375" stroke-linecap="round"/>
<g filter="url(#filter1_i_2_8861)" style="mix-blend-mode:overlay">
<circle cx="22" cy="22" r="20.625" fill="url(#paint0_linear_2_8861)" fill-opacity="0.25"/>
</g>
<g filter="url(#filter2_di_2_8861)">
<path d="M35.0543 8.49957C35.3254 8.42693 35.5734 8.67501 35.5008 8.94612L34.847 11.3861C34.7744 11.6572 34.4355 11.748 34.237 11.5495L32.4508 9.76335C32.2524 9.56488 32.3432 9.226 32.6143 9.15336L35.0543 8.49957Z" fill="#2E3135"/>
<path d="M35.0543 8.49957C35.3254 8.42693 35.5734 8.67501 35.5008 8.94612L34.847 11.3861C34.7744 11.6572 34.4355 11.748 34.237 11.5495L32.4508 9.76335C32.2524 9.56488 32.3432 9.226 32.6143 9.15336L35.0543 8.49957Z" fill="url(#paint1_linear_2_8861)"/>
<path d="M8.49958 35.0542C8.42694 35.3254 8.67502 35.5734 8.94613 35.5008L11.3861 34.847C11.6572 34.7744 11.748 34.4355 11.5495 34.237L9.76336 32.4508C9.5649 32.2524 9.22601 32.3432 9.15337 32.6143L8.49958 35.0542Z" fill="#2E3135"/>
<path d="M8.49958 35.0542C8.42694 35.3254 8.67502 35.5734 8.94613 35.5008L11.3861 34.847C11.6572 34.7744 11.748 34.4355 11.5495 34.237L9.76336 32.4508C9.5649 32.2524 9.22601 32.3432 9.15337 32.6143L8.49958 35.0542Z" fill="url(#paint2_linear_2_8861)"/>
<path d="M35.5006 35.0541C35.5732 35.3252 35.3252 35.5732 35.0541 35.5006L32.6141 34.8468C32.343 34.7742 32.2522 34.4353 32.4507 34.2368L34.2368 32.4506C34.4353 32.2522 34.7742 32.343 34.8468 32.6141L35.5006 35.0541Z" fill="#2E3135"/>
<path d="M35.5006 35.0541C35.5732 35.3252 35.3252 35.5732 35.0541 35.5006L32.6141 34.8468C32.343 34.7742 32.2522 34.4353 32.4507 34.2368L34.2368 32.4506C34.4353 32.2522 34.7742 32.343 34.8468 32.6141L35.5006 35.0541Z" fill="url(#paint3_linear_2_8861)"/>
<path d="M8.94593 8.49938C8.67482 8.42674 8.42674 8.67482 8.49939 8.94593L9.15317 11.3859C9.22581 11.657 9.5647 11.7478 9.76316 11.5493L11.5493 9.76316C11.7478 9.56469 11.657 9.22581 11.3859 9.15317L8.94593 8.49938Z" fill="#2E3135"/>
<path d="M8.94593 8.49938C8.67482 8.42674 8.42674 8.67482 8.49939 8.94593L9.15317 11.3859C9.22581 11.657 9.5647 11.7478 9.76316 11.5493L11.5493 9.76316C11.7478 9.56469 11.657 9.22581 11.3859 9.15317L8.94593 8.49938Z" fill="url(#paint4_linear_2_8861)"/>
</g>
<mask id="path-13-inside-1_2_8861" fill="white">
<path d="M42.68 22C42.68 33.4213 33.4213 42.68 22 42.68C10.5788 42.68 1.32001 33.4213 1.32001 22C1.32001 10.5788 10.5788 1.32001 22 1.32001C33.4213 1.32001 42.68 10.5788 42.68 22Z"/>
</mask>
<g clip-path="url(#paint5_angular_2_8861_clip_path)" data-figma-skip-parse="true" mask="url(#path-13-inside-1_2_8861)"><g transform="matrix(-5.39273e-10 0.02068 -0.02068 5.39273e-10 22 22)"><foreignObject x="-1033.24" y="-1033.24" width="2066.49" height="2066.49"><div xmlns="http://www.w3.org/1999/xhtml" style="background:conic-gradient(from 90deg,rgba(255, 255, 255, 0) 0deg,rgba(255, 255, 255, 0) 81.8156deg,rgba(255, 255, 255, 1) 131.4deg,rgba(255, 255, 255, 0) 193.62deg,rgba(255, 255, 255, 0) 282.297deg,rgba(255, 255, 255, 0.47) 313.983deg,rgba(255, 255, 255, 0) 347.207deg,rgba(255, 255, 255, 0) 360deg);height:100%;width:100%;opacity:1"></div></foreignObject></g></g><path d="M42.68 22L41.9925 22C41.9925 33.0416 33.0416 41.9925 22 41.9925L22 42.68L22 43.3675C33.8009 43.3675 43.3675 33.8009 43.3675 22L42.68 22ZM22 42.68L22 41.9925C10.9585 41.9925 2.00751 33.0416 2.00751 22L1.32001 22L0.632507 22C0.632507 33.801 10.1991 43.3675 22 43.3675L22 42.68ZM1.32001 22L2.00751 22C2.00751 10.9585 10.9585 2.00751 22 2.00751L22 1.32001L22 0.632507C10.1991 0.632507 0.632507 10.1991 0.632507 22L1.32001 22ZM22 1.32001L22 2.00751C33.0416 2.00751 41.9925 10.9585 41.9925 22L42.68 22L43.3675 22C43.3675 10.1991 33.801 0.632507 22 0.632507L22 1.32001Z" data-figma-gradient-fill="{&#34;type&#34;:&#34;GRADIENT_ANGULAR&#34;,&#34;stops&#34;:[{&#34;color&#34;:{&#34;r&#34;:1.0,&#34;g&#34;:1.0,&#34;b&#34;:1.0,&#34;a&#34;:0.0},&#34;position&#34;:0.22726543247699738},{&#34;color&#34;:{&#34;r&#34;:1.0,&#34;g&#34;:1.0,&#34;b&#34;:1.0,&#34;a&#34;:1.0},&#34;position&#34;:0.36500000953674316},{&#34;color&#34;:{&#34;r&#34;:1.0,&#34;g&#34;:1.0,&#34;b&#34;:1.0,&#34;a&#34;:0.0},&#34;position&#34;:0.53783380985260010},{&#34;color&#34;:{&#34;r&#34;:1.0,&#34;g&#34;:1.0,&#34;b&#34;:1.0,&#34;a&#34;:0.0},&#34;position&#34;:0.78415882587432861},{&#34;color&#34;:{&#34;r&#34;:1.0,&#34;g&#34;:1.0,&#34;b&#34;:1.0,&#34;a&#34;:0.46999999880790710},&#34;position&#34;:0.87217563390731812},{&#34;color&#34;:{&#34;r&#34;:1.0,&#34;g&#34;:1.0,&#34;b&#34;:1.0,&#34;a&#34;:0.0},&#34;position&#34;:0.96446347236633301}],&#34;stopsVar&#34;:[{&#34;color&#34;:{&#34;r&#34;:1.0,&#34;g&#34;:1.0,&#34;b&#34;:1.0,&#34;a&#34;:0.0},&#34;position&#34;:0.22726543247699738},{&#34;color&#34;:{&#34;r&#34;:1.0,&#34;g&#34;:1.0,&#34;b&#34;:1.0,&#34;a&#34;:1.0},&#34;position&#34;:0.36500000953674316},{&#34;color&#34;:{&#34;r&#34;:1.0,&#34;g&#34;:1.0,&#34;b&#34;:1.0,&#34;a&#34;:0.0},&#34;position&#34;:0.53783380985260010},{&#34;color&#34;:{&#34;r&#34;:1.0,&#34;g&#34;:1.0,&#34;b&#34;:1.0,&#34;a&#34;:0.0},&#34;position&#34;:0.78415882587432861},{&#34;color&#34;:{&#34;r&#34;:1.0,&#34;g&#34;:1.0,&#34;b&#34;:1.0,&#34;a&#34;:0.46999999880790710},&#34;position&#34;:0.87217563390731812},{&#34;color&#34;:{&#34;r&#34;:1.0,&#34;g&#34;:1.0,&#34;b&#34;:1.0,&#34;a&#34;:0.0},&#34;position&#34;:0.96446347236633301}],&#34;transform&#34;:{&#34;m00&#34;:-1.0785460062834318e-06,&#34;m01&#34;:-41.359996795654297,&#34;m02&#34;:42.680004119873047,&#34;m10&#34;:41.359996795654297,&#34;m11&#34;:1.0785460062834318e-06,&#34;m12&#34;:1.3200062513351440},&#34;opacity&#34;:1.0,&#34;blendMode&#34;:&#34;NORMAL&#34;,&#34;visible&#34;:true}" mask="url(#path-13-inside-1_2_8861)"/>
<mask id="path-15-outside-2_2_8861" maskUnits="userSpaceOnUse" x="9" y="15" width="26" height="15" fill="black">
<rect fill="white" x="9" y="15" width="26" height="15"/>
<path d="M13.4545 20.741H14.6445C16.2595 20.741 17.3985 21.897 17.3985 23.631V25.314C17.3985 27.15 15.8175 28.17 14.2195 28.17C12.1625 28.17 11.1595 27.15 10.9385 25.314L12.8935 24.804C12.9445 25.79 13.3355 26.317 14.1855 26.317C14.7975 26.317 15.2735 25.926 15.2735 25.297V23.563C15.2735 22.866 14.7805 22.509 14.1345 22.509H11.2785L11.8565 16.44H16.8205V18.327H13.6755L13.4545 20.741ZM21.6609 16.27C23.6839 16.27 25.2139 17.562 25.2139 19.67V24.838C25.2139 26.963 23.6669 28.17 21.6609 28.17C19.6209 28.17 18.1419 26.946 18.1419 24.838V19.67C18.1419 17.562 19.6209 16.27 21.6609 16.27ZM23.0889 24.838V19.67C23.0889 18.684 22.6639 18.157 21.6609 18.157C20.8109 18.157 20.2499 18.684 20.2499 19.67V24.838C20.2499 25.807 20.8279 26.317 21.6609 26.317C22.5109 26.317 23.0889 25.824 23.0889 24.838ZM29.6137 16.27C31.6367 16.27 33.1667 17.562 33.1667 19.67V24.838C33.1667 26.963 31.6197 28.17 29.6137 28.17C27.5737 28.17 26.0947 26.946 26.0947 24.838V19.67C26.0947 17.562 27.5737 16.27 29.6137 16.27ZM31.0417 24.838V19.67C31.0417 18.684 30.6167 18.157 29.6137 18.157C28.7637 18.157 28.2027 18.684 28.2027 19.67V24.838C28.2027 25.807 28.7807 26.317 29.6137 26.317C30.4637 26.317 31.0417 25.824 31.0417 24.838Z"/>
</mask>
<path d="M13.4545 20.741H14.6445C16.2595 20.741 17.3985 21.897 17.3985 23.631V25.314C17.3985 27.15 15.8175 28.17 14.2195 28.17C12.1625 28.17 11.1595 27.15 10.9385 25.314L12.8935 24.804C12.9445 25.79 13.3355 26.317 14.1855 26.317C14.7975 26.317 15.2735 25.926 15.2735 25.297V23.563C15.2735 22.866 14.7805 22.509 14.1345 22.509H11.2785L11.8565 16.44H16.8205V18.327H13.6755L13.4545 20.741ZM21.6609 16.27C23.6839 16.27 25.2139 17.562 25.2139 19.67V24.838C25.2139 26.963 23.6669 28.17 21.6609 28.17C19.6209 28.17 18.1419 26.946 18.1419 24.838V19.67C18.1419 17.562 19.6209 16.27 21.6609 16.27ZM23.0889 24.838V19.67C23.0889 18.684 22.6639 18.157 21.6609 18.157C20.8109 18.157 20.2499 18.684 20.2499 19.67V24.838C20.2499 25.807 20.8279 26.317 21.6609 26.317C22.5109 26.317 23.0889 25.824 23.0889 24.838ZM29.6137 16.27C31.6367 16.27 33.1667 17.562 33.1667 19.67V24.838C33.1667 26.963 31.6197 28.17 29.6137 28.17C27.5737 28.17 26.0947 26.946 26.0947 24.838V19.67C26.0947 17.562 27.5737 16.27 29.6137 16.27ZM31.0417 24.838V19.67C31.0417 18.684 30.6167 18.157 29.6137 18.157C28.7637 18.157 28.2027 18.684 28.2027 19.67V24.838C28.2027 25.807 28.7807 26.317 29.6137 26.317C30.4637 26.317 31.0417 25.824 31.0417 24.838Z" fill="url(#paint6_linear_2_8861)"/>
<path d="M13.4545 20.741L12.4587 20.6498C12.4331 20.9297 12.5264 21.2075 12.7159 21.4151C12.9053 21.6227 13.1734 21.741 13.4545 21.741V20.741ZM10.9385 25.314L10.6861 24.3464C10.2022 24.4726 9.88591 24.937 9.94568 25.4335L10.9385 25.314ZM12.8935 24.804L13.8922 24.7523C13.8766 24.4521 13.7268 24.1747 13.4842 23.9971C13.2417 23.8195 12.932 23.7605 12.6411 23.8364L12.8935 24.804ZM11.2785 22.509L10.283 22.4142C10.2563 22.6946 10.3491 22.9733 10.5386 23.1818C10.7282 23.3902 10.9968 23.509 11.2785 23.509V22.509ZM11.8565 16.44V15.44C11.341 15.44 10.9099 15.832 10.861 16.3452L11.8565 16.44ZM16.8205 16.44H17.8205C17.8205 15.8877 17.3728 15.44 16.8205 15.44V16.44ZM16.8205 18.327V19.327C17.3728 19.327 17.8205 18.8793 17.8205 18.327H16.8205ZM13.6755 18.327V17.327C13.1586 17.327 12.7268 17.721 12.6797 18.2358L13.6755 18.327ZM13.4545 20.741V21.741H14.6445V20.741V19.741H13.4545V20.741ZM14.6445 20.741V21.741C15.2051 21.741 15.6251 21.9366 15.9065 22.2291C16.1903 22.524 16.3985 22.9863 16.3985 23.631H17.3985H18.3985C18.3985 22.5417 18.0373 21.559 17.3477 20.8424C16.6559 20.1234 15.6989 19.741 14.6445 19.741V20.741ZM17.3985 23.631H16.3985V25.314H17.3985H18.3985V23.631H17.3985ZM17.3985 25.314H16.3985C16.3985 26.4155 15.467 27.17 14.2195 27.17V28.17V29.17C16.168 29.17 18.3985 27.8845 18.3985 25.314H17.3985ZM14.2195 28.17V27.17C13.352 27.17 12.8574 26.9568 12.5614 26.689C12.2623 26.4184 12.0239 25.9636 11.9313 25.1945L10.9385 25.314L9.94568 25.4335C10.0741 26.5004 10.4477 27.4736 11.2196 28.172C11.9946 28.8732 13.03 29.17 14.2195 29.17V28.17ZM10.9385 25.314L11.1909 26.2816L13.1459 25.7716L12.8935 24.804L12.6411 23.8364L10.6861 24.3464L10.9385 25.314ZM12.8935 24.804L11.8948 24.8557C11.9253 25.4443 12.0616 26.0734 12.4685 26.5666C12.9124 27.1046 13.5379 27.317 14.1855 27.317V26.317V25.317C14.0749 25.317 14.0256 25.2998 14.0138 25.2949C14.0079 25.2925 14.0118 25.2945 14.0113 25.2939C13.9974 25.2771 13.9127 25.1497 13.8922 24.7523L12.8935 24.804ZM14.1855 26.317V27.317C14.7017 27.317 15.2237 27.1509 15.6289 26.7854C16.0449 26.41 16.2735 25.8803 16.2735 25.297H15.2735H14.2735C14.2735 25.3265 14.2683 25.3327 14.2719 25.3243C14.2756 25.3158 14.2823 25.3065 14.2892 25.3004C14.3033 25.2876 14.2813 25.317 14.1855 25.317V26.317ZM15.2735 25.297H16.2735V23.563H15.2735H14.2735V25.297H15.2735ZM15.2735 23.563H16.2735C16.2735 22.9606 16.0502 22.4072 15.6003 22.0182C15.1706 21.6466 14.6323 21.509 14.1345 21.509V22.509V23.509C14.2827 23.509 14.3139 23.5499 14.2922 23.5311C14.2803 23.5208 14.271 23.507 14.2671 23.498C14.264 23.4906 14.2735 23.5075 14.2735 23.563H15.2735ZM14.1345 22.509V21.509H11.2785V22.509V23.509H14.1345V22.509ZM11.2785 22.509L12.274 22.6038L12.852 16.5348L11.8565 16.44L10.861 16.3452L10.283 22.4142L11.2785 22.509ZM11.8565 16.44V17.44H16.8205V16.44V15.44H11.8565V16.44ZM16.8205 16.44H15.8205V18.327H16.8205H17.8205V16.44H16.8205ZM16.8205 18.327V17.327H13.6755V18.327V19.327H16.8205V18.327ZM13.6755 18.327L12.6797 18.2358L12.4587 20.6498L13.4545 20.741L14.4503 20.8322L14.6713 18.4182L13.6755 18.327ZM21.6609 16.27V17.27C22.4612 17.27 23.0946 17.5237 23.5177 17.9143C23.9315 18.2962 24.2139 18.8718 24.2139 19.67H25.2139H26.2139C26.2139 18.3602 25.7312 17.2358 24.8743 16.4447C24.0266 15.6623 22.8836 15.27 21.6609 15.27V16.27ZM25.2139 19.67H24.2139V24.838H25.2139H26.2139V19.67H25.2139ZM25.2139 24.838H24.2139C24.2139 25.6408 23.9306 26.1927 23.5248 26.5539C23.1045 26.9279 22.4686 27.17 21.6609 27.17V28.17V29.17C22.8591 29.17 23.9997 28.8086 24.8544 28.0479C25.7236 27.2743 26.2139 26.1602 26.2139 24.838H25.2139ZM21.6609 28.17V27.17C20.837 27.17 20.2148 26.9244 19.81 26.5555C19.417 26.1971 19.1419 25.6446 19.1419 24.838H18.1419H17.1419C17.1419 26.1394 17.6063 27.2529 18.4627 28.0335C19.3074 28.8036 20.4447 29.17 21.6609 29.17V28.17ZM18.1419 24.838H19.1419V19.67H18.1419H17.1419V24.838H18.1419ZM18.1419 19.67H19.1419C19.1419 18.8613 19.4189 18.2859 19.8208 17.9086C20.2304 17.524 20.8512 17.27 21.6609 17.27V16.27V15.27C20.4305 15.27 19.2918 15.662 18.4519 16.4504C17.6044 17.2461 17.1419 18.3707 17.1419 19.67H18.1419ZM23.0889 24.838H24.0889V19.67H23.0889H22.0889V24.838H23.0889ZM23.0889 19.67H24.0889C24.0889 19.0573 23.9601 18.3876 23.4912 17.8714C23.0047 17.3358 22.3297 17.157 21.6609 17.157V18.157V19.157C21.8273 19.157 21.9227 19.1793 21.9698 19.1961C21.9923 19.2042 22.0033 19.2108 22.007 19.2132C22.0103 19.2154 22.0108 19.2161 22.0108 19.2161C22.0109 19.2163 22.0147 19.2204 22.0209 19.2319C22.0274 19.2439 22.0373 19.2657 22.0477 19.3007C22.0692 19.3736 22.0889 19.4916 22.0889 19.67H23.0889ZM21.6609 18.157V17.157C21.0271 17.157 20.3919 17.3581 19.9176 17.8487C19.4464 18.3362 19.2499 18.9896 19.2499 19.67H20.2499H21.2499C21.2499 19.3644 21.3339 19.2613 21.3556 19.2388C21.3744 19.2194 21.4446 19.157 21.6609 19.157V18.157ZM20.2499 19.67H19.2499V24.838H20.2499H21.2499V19.67H20.2499ZM20.2499 24.838H19.2499C19.2499 25.523 19.4584 26.1705 19.9359 26.648C20.4114 27.1235 21.0406 27.317 21.6609 27.317V26.317V25.317C21.4482 25.317 21.3718 25.2555 21.3501 25.2338C21.3303 25.214 21.2499 25.122 21.2499 24.838H20.2499ZM21.6609 26.317V27.317C22.2757 27.317 22.9109 27.1359 23.3947 26.6604C23.8824 26.1809 24.0889 25.5274 24.0889 24.838H23.0889H22.0889C22.0889 25.1346 22.0063 25.2206 21.9926 25.2341C21.9748 25.2516 21.896 25.317 21.6609 25.317V26.317ZM29.6137 16.27V17.27C30.414 17.27 31.0474 17.5237 31.4705 17.9143C31.8843 18.2962 32.1667 18.8718 32.1667 19.67H33.1667H34.1667C34.1667 18.3602 33.6841 17.2358 32.8271 16.4447C31.9794 15.6623 30.8364 15.27 29.6137 15.27V16.27ZM33.1667 19.67H32.1667V24.838H33.1667H34.1667V19.67H33.1667ZM33.1667 24.838H32.1667C32.1667 25.6408 31.8834 26.1927 31.4776 26.5539C31.0573 26.9279 30.4214 27.17 29.6137 27.17V28.17V29.17C30.8119 29.17 31.9525 28.8086 32.8073 28.0479C33.6764 27.2743 34.1667 26.1602 34.1667 24.838H33.1667ZM29.6137 28.17V27.17C28.7898 27.17 28.1676 26.9244 27.7628 26.5555C27.3698 26.1971 27.0947 25.6446 27.0947 24.838H26.0947H25.0947C25.0947 26.1394 25.5591 27.2529 26.4155 28.0335C27.2603 28.8036 28.3976 29.17 29.6137 29.17V28.17ZM26.0947 24.838H27.0947V19.67H26.0947H25.0947V24.838H26.0947ZM26.0947 19.67H27.0947C27.0947 18.8613 27.3717 18.2859 27.7736 17.9086C28.1832 17.524 28.804 17.27 29.6137 17.27V16.27V15.27C28.3833 15.27 27.2446 15.662 26.4047 16.4504C25.5572 17.2461 25.0947 18.3707 25.0947 19.67H26.0947ZM31.0417 24.838H32.0417V19.67H31.0417H30.0417V24.838H31.0417ZM31.0417 19.67H32.0417C32.0417 19.0573 31.9129 18.3876 31.444 17.8714C30.9575 17.3358 30.2825 17.157 29.6137 17.157V18.157V19.157C29.7802 19.157 29.8755 19.1793 29.9226 19.1961C29.9451 19.2042 29.9561 19.2108 29.9598 19.2132C29.9631 19.2154 29.9636 19.2161 29.9636 19.2161C29.9638 19.2163 29.9675 19.2204 29.9738 19.2319C29.9802 19.2439 29.9902 19.2657 30.0005 19.3007C30.022 19.3736 30.0417 19.4916 30.0417 19.67H31.0417ZM29.6137 18.157V17.157C28.9799 17.157 28.3447 17.3581 27.8704 17.8487C27.3992 18.3362 27.2027 18.9896 27.2027 19.67H28.2027H29.2027C29.2027 19.3644 29.2867 19.2613 29.3084 19.2388C29.3272 19.2194 29.3975 19.157 29.6137 19.157V18.157ZM28.2027 19.67H27.2027V24.838H28.2027H29.2027V19.67H28.2027ZM28.2027 24.838H27.2027C27.2027 25.523 27.4113 26.1705 27.8887 26.648C28.3642 27.1235 28.9934 27.317 29.6137 27.317V26.317V25.317C29.401 25.317 29.3246 25.2555 29.3029 25.2338C29.2831 25.214 29.2027 25.122 29.2027 24.838H28.2027ZM29.6137 26.317V27.317C30.2285 27.317 30.8637 27.1359 31.3475 26.6604C31.8352 26.1809 32.0417 25.5274 32.0417 24.838H31.0417H30.0417C30.0417 25.1346 29.9591 25.2206 29.9454 25.2341C29.9276 25.2516 29.8489 25.317 29.6137 25.317V26.317Z" fill="#EAE9E1" mask="url(#path-15-outside-2_2_8861)"/>
<defs>
<filter id="filter0_ddddi_2_8861" x="-3.4375" y="-3.4375" width="51.0125" height="51.0125" filterUnits="userSpaceOnUse" color-interpolation-filters="sRGB">
<feFlood flood-opacity="0" result="BackgroundImageFix"/>
<feColorMatrix in="SourceAlpha" type="matrix" values="0 0 0 0 0 0 0 0 0 0 0 0 0 0 0 0 0 0 127 0" result="hardAlpha"/>
<feOffset/>
<feGaussianBlur stdDeviation="0.495"/>
<feColorMatrix type="matrix" values="0 0 0 0 0 0 0 0 0 0 0 0 0 0 0 0 0 0 0.25 0"/>
<feBlend mode="normal" in2="BackgroundImageFix" result="effect1_dropShadow_2_8861"/>
<feColorMatrix in="SourceAlpha" type="matrix" values="0 0 0 0 0 0 0 0 0 0 0 0 0 0 0 0 0 0 127 0" result="hardAlpha"/>
<feOffset dx="0.99" dy="0.99"/>
<feGaussianBlur stdDeviation="0.495"/>
<feColorMatrix type="matrix" values="0 0 0 0 0 0 0 0 0 0 0 0 0 0 0 0 0 0 0.22 0"/>
<feBlend mode="normal" in2="effect1_dropShadow_2_8861" result="effect2_dropShadow_2_8861"/>
<feColorMatrix in="SourceAlpha" type="matrix" values="0 0 0 0 0 0 0 0 0 0 0 0 0 0 0 0 0 0 127 0" result="hardAlpha"/>
<feOffset dx="1.98" dy="1.98"/>
<feGaussianBlur stdDeviation="0.495"/>
<feColorMatrix type="matrix" values="0 0 0 0 0 0 0 0 0 0 0 0 0 0 0 0 0 0 0.13 0"/>
<feBlend mode="normal" in2="effect2_dropShadow_2_8861" result="effect3_dropShadow_2_8861"/>
<feColorMatrix in="SourceAlpha" type="matrix" values="0 0 0 0 0 0 0 0 0 0 0 0 0 0 0 0 0 0 127 0" result="hardAlpha"/>
<feOffset dx="2.97" dy="2.97"/>
<feGaussianBlur stdDeviation="0.99"/>
<feColorMatrix type="matrix" values="0 0 0 0 0 0 0 0 0 0 0 0 0 0 0 0 0 0 0.04 0"/>
<feBlend mode="normal" in2="effect3_dropShadow_2_8861" result="effect4_dropShadow_2_8861"/>
<feBlend mode="normal" in="SourceGraphic" in2="effect4_dropShadow_2_8861" result="shape"/>
<feColorMatrix in="SourceAlpha" type="matrix" values="0 0 0 0 0 0 0 0 0 0 0 0 0 0 0 0 0 0 127 0" result="hardAlpha"/>
<feMorphology radius="0.34375" operator="erode" in="SourceAlpha" result="effect5_innerShadow_2_8861"/>
<feOffset/>
<feGaussianBlur stdDeviation="0.34375"/>
<feComposite in2="hardAlpha" operator="arithmetic" k2="-1" k3="1"/>
<feColorMatrix type="matrix" values="0 0 0 0 1 0 0 0 0 1 0 0 0 0 1 0 0 0 0.25 0"/>
<feBlend mode="normal" in2="shape" result="effect5_innerShadow_2_8861"/>
</filter>
<clipPath id="bgblur_0_2_8861_clip_path" transform="translate(3.4375 3.4375)"><circle cx="22" cy="22" r="20.625"/>
</clipPath><filter id="filter1_i_2_8861" x="1.375" y="1.375" width="41.25" height="41.25" filterUnits="userSpaceOnUse" color-interpolation-filters="sRGB">
<feFlood flood-opacity="0" result="BackgroundImageFix"/>
<feBlend mode="normal" in="SourceGraphic" in2="BackgroundImageFix" result="shape"/>
<feColorMatrix in="SourceAlpha" type="matrix" values="0 0 0 0 0 0 0 0 0 0 0 0 0 0 0 0 0 0 127 0" result="hardAlpha"/>
<feMorphology radius="0.34375" operator="erode" in="SourceAlpha" result="effect1_innerShadow_2_8861"/>
<feOffset/>
<feGaussianBlur stdDeviation="0.34375"/>
<feComposite in2="hardAlpha" operator="arithmetic" k2="-1" k3="1"/>
<feColorMatrix type="matrix" values="0 0 0 0 1 0 0 0 0 1 0 0 0 0 1 0 0 0 0.25 0"/>
<feBlend mode="normal" in2="shape" result="effect1_innerShadow_2_8861"/>
</filter>
<filter id="filter2_di_2_8861" x="8.10845" y="8.4522" width="27.7833" height="27.7833" filterUnits="userSpaceOnUse" color-interpolation-filters="sRGB">
<feFlood flood-opacity="0" result="BackgroundImageFix"/>
<feColorMatrix in="SourceAlpha" type="matrix" values="0 0 0 0 0 0 0 0 0 0 0 0 0 0 0 0 0 0 127 0" result="hardAlpha"/>
<feOffset dy="0.34375"/>
<feGaussianBlur stdDeviation="0.189063"/>
<feComposite in2="hardAlpha" operator="out"/>
<feColorMatrix type="matrix" values="0 0 0 0 0 0 0 0 0 0 0 0 0 0 0 0 0 0 0.51 0"/>
<feBlend mode="normal" in2="BackgroundImageFix" result="effect1_dropShadow_2_8861"/>
<feBlend mode="normal" in="SourceGraphic" in2="effect1_dropShadow_2_8861" result="shape"/>
<feColorMatrix in="SourceAlpha" type="matrix" values="0 0 0 0 0 0 0 0 0 0 0 0 0 0 0 0 0 0 127 0" result="hardAlpha"/>
<feOffset dy="0.34375"/>
<feGaussianBlur stdDeviation="0.34375"/>
<feComposite in2="hardAlpha" operator="arithmetic" k2="-1" k3="1"/>
<feColorMatrix type="matrix" values="0 0 0 0 1 0 0 0 0 1 0 0 0 0 1 0 0 0 0.5 0"/>
<feBlend mode="normal" in2="shape" result="effect2_innerShadow_2_8861"/>
</filter>
<clipPath id="paint5_angular_2_8861_clip_path"><path d="M42.68 22L41.9925 22C41.9925 33.0416 33.0416 41.9925 22 41.9925L22 42.68L22 43.3675C33.8009 43.3675 43.3675 33.8009 43.3675 22L42.68 22ZM22 42.68L22 41.9925C10.9585 41.9925 2.00751 33.0416 2.00751 22L1.32001 22L0.632507 22C0.632507 33.801 10.1991 43.3675 22 43.3675L22 42.68ZM1.32001 22L2.00751 22C2.00751 10.9585 10.9585 2.00751 22 2.00751L22 1.32001L22 0.632507C10.1991 0.632507 0.632507 10.1991 0.632507 22L1.32001 22ZM22 1.32001L22 2.00751C33.0416 2.00751 41.9925 10.9585 41.9925 22L42.68 22L43.3675 22C43.3675 10.1991 33.801 0.632507 22 0.632507L22 1.32001Z" mask="url(#path-13-inside-1_2_8861)"/></clipPath><linearGradient id="paint0_linear_2_8861" x1="22" y1="1.375" x2="22" y2="42.625" gradientUnits="userSpaceOnUse">
<stop stop-color="white"/>
<stop offset="1"/>
</linearGradient>
<linearGradient id="paint1_linear_2_8861" x1="28.5553" y1="2.23586" x2="20.4913" y2="42.9678" gradientUnits="userSpaceOnUse">
<stop stop-color="#D5BC80"/>
<stop offset="1" stop-color="#AE8943"/>
</linearGradient>
<linearGradient id="paint2_linear_2_8861" x1="28.5553" y1="2.23586" x2="20.4913" y2="42.9678" gradientUnits="userSpaceOnUse">
<stop stop-color="#D5BC80"/>
<stop offset="1" stop-color="#AE8943"/>
</linearGradient>
<linearGradient id="paint3_linear_2_8861" x1="28.5553" y1="2.23586" x2="20.4913" y2="42.9678" gradientUnits="userSpaceOnUse">
<stop stop-color="#D5BC80"/>
<stop offset="1" stop-color="#AE8943"/>
</linearGradient>
<linearGradient id="paint4_linear_2_8861" x1="28.5553" y1="2.23586" x2="20.4913" y2="42.9678" gradientUnits="userSpaceOnUse">
<stop stop-color="#D5BC80"/>
<stop offset="1" stop-color="#AE8943"/>
</linearGradient>
<linearGradient id="paint6_linear_2_8861" x1="22" y1="19.4286" x2="22" y2="23.7143" gradientUnits="userSpaceOnUse">
<stop stop-color="#3D3F40"/>
<stop offset="1" stop-color="#0D0D0D"/>
</linearGradient>
</defs>
</svg>
